<svg version="1.1" xmlns="http://www.w3.org/2000/svg" xmlns:xlink="http://www.w3.org/1999/xlink" width="781.09081" height="580.65216" viewBox="0,0,781.09081,580.65216"><g transform="translate(150.5454,110.32608)"><g data-paper-data="{&quot;isPaintingLayer&quot;:true}" fill-rule="nonzero" stroke-linejoin="miter" stroke-miterlimit="10" stroke-dasharray="" stroke-dashoffset="0" style="mix-blend-mode: normal"><path d="M258.81131,215.04524v-1.66174h1.84602v1.66174z" data-paper-data="{&quot;index&quot;:null}" fill="#ff5e5e" stroke="none" stroke-width="0" stroke-linecap="butt"/><path d="M250.5042,216.70698v-3.87739h4.7689v3.87739z" data-paper-data="{&quot;index&quot;:null}" fill="#ff5e5e" stroke="none" stroke-width="0" stroke-linecap="butt"/><path d="M256.19611,219.10726v-4.80058h6.46109v4.80058z" data-paper-data="{&quot;index&quot;:null}" fill="#ff5e5e" stroke="none" stroke-width="0" stroke-linecap="butt"/><path d="M255.86647,218.6648l-12.19878,-16.23856l4.39711,-4.75843l12.19879,16.23856z" data-paper-data="{&quot;index&quot;:null}" fill="#ff5e5e" stroke="none" stroke-width="NaN" stroke-linecap="butt"/><path d="M247.42749,215.04524v-7.75478h6.15341v7.75478z" data-paper-data="{&quot;index&quot;:null}" fill="#ff5e5e" stroke="none" stroke-width="0" stroke-linecap="butt"/><path d="M247.27414,196.71782l16.30655,19.57158v4.06203l-13.69135,-4.4313l-2.6152,-3.50811" data-paper-data="{&quot;index&quot;:null}" fill="none" stroke="#ff0000" stroke-width="3.5" stroke-linecap="round"/><path d="M219.20835,214.8606v-1.66174h1.84602v1.66174z" fill="#ff5e5e" stroke="none" stroke-width="0" stroke-linecap="butt"/><path d="M224.59259,216.52234v-3.87739h4.7689v3.87739z" fill="#ff5e5e" stroke="none" stroke-width="0" stroke-linecap="butt"/><path d="M217.20849,218.92263v-4.80058h6.46109v4.80058z" fill="#ff5e5e" stroke="none" stroke-width="0" stroke-linecap="butt"/><path d="M219.6021,213.72173l12.19879,-16.23856l4.39711,4.75843l-12.19879,16.23856z" fill="#ff5e5e" stroke="none" stroke-width="NaN" stroke-linecap="butt"/><path d="M226.28478,214.8606v-7.75478h6.15341v7.75478z" fill="#ff5e5e" stroke="none" stroke-width="0" stroke-linecap="butt"/><path d="M193.74748,178.46583v-6.46231h10.92231v6.46231z" fill="#ff5e5e" stroke="none" stroke-width="0" stroke-linecap="butt"/><path d="M184.97886,186.58988v-5.9084h3.99972v5.9084z" fill="#ff5e5e" stroke="none" stroke-width="0" stroke-linecap="butt"/><path d="M185.97264,187.19473l-0.62946,-12.16585l53.56113,-3.44557l0.62946,12.16585z" fill="#ff5e5e" stroke="none" stroke-width="0" stroke-linecap="butt"/><path d="M204.7393,187.1665l-6.18765,-16.4271l33.58517,-14.63742l6.18765,16.4271z" fill="#ff5e5e" stroke="#ff0000" stroke-width="0" stroke-linecap="butt"/><path d="M232.5223,159.39666c0,-4.94567 3.34041,-27.41867 7.46102,-27.41867c4.12061,0 7.46102,22.473 7.46102,27.41867c0,4.94567 -3.34041,9.50883 -7.46102,9.50883c-4.12061,0 -7.46102,-4.56316 -7.46102,-9.50883z" fill="#ff5e5e" stroke="#ff0000" stroke-width="3.5" stroke-linecap="butt"/><path d="M232.40951,210.08034c0,-4.98012 3.36368,-9.01732 7.513,-9.01732c4.14932,0 7.513,4.03719 7.513,9.01732c0,4.98012 -3.36369,17.94167 -7.513,17.94167c-4.14932,0 -7.513,-12.96155 -7.513,-17.94167z" fill="#ff5e5e" stroke="#ff0000" stroke-width="3.5" stroke-linecap="butt"/><path d="M233.59915,212.11067v-51.88314h13.07601v51.88314z" fill="#ff5e5e" stroke="none" stroke-width="0" stroke-linecap="butt"/><path d="M231.43777,184.53174l-46.76595,2.58493v-10.3397l47.89152,-20.16712v52.25242" fill="none" stroke="#ff0000" stroke-width="3.5" stroke-linecap="round"/><path d="M247.26658,213.19147v-53.17561" fill="none" stroke="#ff0000" stroke-width="3.5" stroke-linecap="round"/><path d="M247.43666,208.86227v-52.25242l47.89152,20.16712v10.3397l-46.76595,-2.58493" data-paper-data="{&quot;index&quot;:null}" fill="none" stroke="#ff0000" stroke-width="3.5" stroke-linecap="round"/><path d="M232.59154,212.22739l-2.6152,3.50811l-13.69135,4.4313v-4.06203l16.30655,-19.57158" fill="none" stroke="#ff0000" stroke-width="3.5" stroke-linecap="round"/><path d="M247.35974,196.71782l16.30655,19.57158v4.06203l-13.69135,-4.4313l-2.6152,-3.50811" data-paper-data="{&quot;index&quot;:null}" fill="none" stroke="#ff0000" stroke-width="3.5" stroke-linecap="round"/><path d="M239.97564,219.54844v-7.75478" fill="none" stroke="#ff0000" stroke-width="3.5" stroke-linecap="round"/><path d="M275.22421,178.46583v-6.46231h10.92231v6.46231z" data-paper-data="{&quot;index&quot;:null}" fill="#ff5e5e" stroke="none" stroke-width="0" stroke-linecap="butt"/><path d="M290.91542,186.58988v-5.9084h3.99972v5.9084z" data-paper-data="{&quot;index&quot;:null}" fill="#ff5e5e" stroke="none" stroke-width="0" stroke-linecap="butt"/><path d="M240.36023,183.74916l0.62946,-12.16584l53.56113,3.44557l-0.62946,12.16585z" data-paper-data="{&quot;index&quot;:null}" fill="#ff5e5e" stroke="none" stroke-width="0" stroke-linecap="butt"/><path d="M241.56953,172.52909l6.18765,-16.4271l33.58517,14.63742l-6.18765,16.4271z" data-paper-data="{&quot;index&quot;:null}" fill="#ff5e5e" stroke="#ff0000" stroke-width="0" stroke-linecap="butt"/><path d="M247.33065,208.86227v-52.25242l47.89152,20.16712v10.3397l-46.76595,-2.58493" data-paper-data="{&quot;index&quot;:null}" fill="none" stroke="#ff0000" stroke-width="3.5" stroke-linecap="round"/><path d="M160.43626,245.64827v-131.29654h159.12748v131.29654z" fill="none" stroke="none" stroke-width="0" stroke-linecap="butt"/><path d="M-43.78378,390.96096v-421.92192h567.56757v421.92192z" fill="none" stroke="none" stroke-width="0" stroke-linecap="butt"/><path d="M-150.5454,470.32608v-580.65216h781.09081v580.65216z" fill="none" stroke="none" stroke-width="0" stroke-linecap="butt"/></g></g></svg>